<svg width="328" height="250" viewBox="0 0 328 250" fill="none" xmlns="http://www.w3.org/2000/svg">
<path d="M296.37 125C296.37 190.88 244.467 244 180.79 244C117.113 244 65.2109 190.88 65.2109 125C65.2109 59.1201 117.113 6 180.79 6C244.467 6 296.37 59.1201 296.37 125Z" stroke="#514CA2" stroke-opacity="0.66" stroke-width="12"/>
<path d="M157.307 197.192C164.263 201.452 172.308 203.842 180.585 204.106C180.438 204.438 180.272 204.763 180.088 205.078C179.125 206.763 177.763 208.215 176.11 209.319C174.152 210.624 171.854 211.395 169.466 211.548C167.077 211.7 164.691 211.228 162.566 210.183C160.441 209.138 158.661 207.56 157.418 205.622C156.175 203.684 155.517 201.459 155.517 199.191V197.192H157.307Z" fill="#3F3D56"/>
<path d="M148.395 130.279C142.691 135.969 138.723 143.022 136.916 150.684C136.599 150.485 136.293 150.27 136 150.04C134.432 148.831 133.179 147.293 132.341 145.549C131.351 143.483 130.977 141.199 131.262 138.946C131.546 136.693 132.477 134.557 133.954 132.771C135.431 130.985 137.396 129.619 139.636 128.82C141.876 128.021 144.303 127.82 146.655 128.241L148.727 128.611L148.395 130.279Z" fill="#3F3D56"/>
<path d="M206.129 197.777V199.191C206.13 201.943 205.164 204.617 203.382 206.79C201.6 208.963 199.105 210.512 196.291 211.192C193.476 211.872 190.503 211.644 187.841 210.544C185.179 209.444 182.979 207.535 181.59 205.118C181.398 204.795 181.225 204.462 181.072 204.121C181.454 204.131 181.831 204.136 182.213 204.136C190.651 204.145 198.928 201.944 206.129 197.777V197.777Z" fill="#3F3D56"/>
<path d="M223.738 48.2911C223.346 48.2365 222.948 48.2018 222.55 48.177C227.071 58.0489 227.384 69.1955 223.424 79.2814C223.822 79.2368 224.215 79.1773 224.607 79.1078C228.441 78.404 231.886 76.434 234.33 73.5485C236.775 70.663 238.059 67.0492 237.954 63.3505C237.85 59.6518 236.364 56.1082 233.761 53.3505C231.157 50.5928 227.606 48.7999 223.738 48.2911V48.2911Z" fill="#3F3D56"/>
<path d="M141.876 48.177C141.478 48.2018 141.08 48.2365 140.688 48.2911C136.82 48.7999 133.269 50.5928 130.665 53.3505C128.062 56.1082 126.576 59.6518 126.472 63.3505C126.367 67.0492 127.652 70.663 130.096 73.5485C132.54 76.434 135.985 78.404 139.819 79.1079C140.211 79.1773 140.604 79.2368 141.002 79.2815C137.042 69.1956 137.356 58.049 141.876 48.177V48.177Z" fill="#3F3D56"/>
<path d="M223.738 48.2911C219.426 38.5296 211.438 30.6356 201.327 26.1426C191.216 21.6496 179.703 20.8784 169.026 23.9789C158.348 27.0794 149.268 33.8301 143.549 42.9197C137.831 52.0092 135.882 62.7885 138.081 73.1633C140.281 83.5382 146.472 92.7679 155.452 99.0594C164.431 105.351 175.559 108.255 186.671 107.207C197.784 106.159 208.089 101.235 215.585 93.39C223.08 85.5453 227.23 75.3406 227.23 64.7584C227.227 59.1044 226.041 53.5071 223.738 48.2911V48.2911ZM223.424 79.2814C219.595 89.0348 212.052 97.0768 202.279 101.825C192.507 106.573 181.212 107.682 170.62 104.936C160.027 102.189 150.903 95.7845 145.043 86.9832C139.184 78.1818 137.013 67.6209 138.958 57.3791C140.904 47.1372 146.824 37.9563 155.555 31.6433C164.285 25.3303 175.193 22.3425 186.132 23.2679C197.071 24.1934 207.248 28.965 214.66 36.6437C222.072 44.3224 226.183 54.352 226.183 64.7584C226.181 69.7163 225.247 74.6342 223.424 79.2814V79.2814Z" fill="#3F3D56"/>
<path d="M205.245 55.0863H159.181C156.752 55.0863 154.422 56.0008 152.704 57.6286C150.986 59.2565 150.021 61.4643 150.021 63.7664C150.021 66.0685 150.986 68.2763 152.704 69.9041C154.422 71.532 156.752 72.4465 159.181 72.4465H205.245C207.674 72.4465 210.004 71.532 211.722 69.9041C213.44 68.2763 214.405 66.0685 214.405 63.7664C214.405 61.4643 213.44 59.2565 211.722 57.6286C210.004 56.0008 207.674 55.0863 205.245 55.0863V55.0863Z" fill="#3F3D56"/>
<path d="M182.213 115.847C169.907 115.852 158.091 120.42 149.294 128.574C140.496 136.728 135.415 147.821 135.138 159.479C134.86 171.137 139.408 182.435 147.808 190.956C156.208 199.478 167.794 204.547 180.088 205.078C180.585 205.103 181.088 205.118 181.59 205.118C181.799 205.128 182.004 205.128 182.213 205.128C194.707 205.128 206.69 200.425 215.525 192.053C224.36 183.681 229.323 172.327 229.323 160.487C229.323 148.648 224.36 137.293 215.525 128.922C206.69 120.55 194.707 115.847 182.213 115.847V115.847ZM206.129 197.777C198.928 201.944 190.651 204.145 182.213 204.136C181.831 204.136 181.454 204.131 181.072 204.121C180.909 204.121 180.747 204.116 180.585 204.106C169.524 203.742 158.97 199.618 150.853 192.488C142.736 185.358 137.598 175.699 136.377 165.275C135.156 154.851 137.935 144.359 144.205 135.717C150.476 127.074 159.819 120.858 170.527 118.205C181.235 115.552 192.593 116.639 202.525 121.267C212.457 125.895 220.3 133.755 224.62 143.411C228.941 153.067 229.45 163.873 226.055 173.855C222.659 183.838 215.587 192.329 206.129 197.777Z" fill="#3F3D56"/>
<path d="M215.278 149.493H194.689C193.254 149.493 191.878 148.953 190.864 147.991C189.849 147.03 189.28 145.727 189.28 144.367C189.28 143.008 189.849 141.704 190.864 140.743C191.878 139.782 193.254 139.242 194.689 139.242H215.278C216.712 139.242 218.088 139.782 219.102 140.743C220.117 141.704 220.687 143.008 220.687 144.367C220.687 145.727 220.117 147.03 219.102 147.991C218.088 148.953 216.712 149.493 215.278 149.493V149.493Z" fill="#3F3D56"/>
<path d="M196.061 146.968C197.577 146.968 198.806 145.804 198.806 144.367C198.806 142.931 197.577 141.766 196.061 141.766C194.545 141.766 193.316 142.931 193.316 144.367C193.316 145.804 194.545 146.968 196.061 146.968Z" fill="#F2F2F2"/>
<path d="M204.983 146.968C206.499 146.968 207.728 145.804 207.728 144.367C207.728 142.931 206.499 141.766 204.983 141.766C203.467 141.766 202.238 142.931 202.238 144.367C202.238 145.804 203.467 146.968 204.983 146.968Z" fill="#F2F2F2"/>
<path d="M213.905 146.968C215.421 146.968 216.65 145.804 216.65 144.367C216.65 142.931 215.421 141.766 213.905 141.766C212.389 141.766 211.16 142.931 211.16 144.367C211.16 145.804 212.389 146.968 213.905 146.968Z" fill="#6C63FF"/>
<line y1="-0.5" x2="32.2201" y2="-0.5" transform="matrix(-0.759582 -0.650412 0.689795 -0.724004 134.211 133.971)" stroke="black"/>
<path d="M122.641 102.668L122.643 102.758L122.702 102.827L132.202 113.811C133.172 114.932 132.393 116.677 130.91 116.706L10.9879 119.024C5.60409 119.128 1.15986 114.848 1.06141 109.464L0.432785 75.0873C0.334334 69.7034 4.61893 65.2546 10.0027 65.1505L112.168 63.1757C117.551 63.0716 121.996 67.3518 122.094 72.7356L122.641 102.668Z" fill="#DDDCEB" stroke="black" stroke-width="0.5"/>
<line x1="18.9475" y1="97.7143" x2="71.053" y2="97.7143" stroke="black" stroke-dasharray="2 2"/>
<line x1="18.9475" y1="84.7272" x2="98.6847" y2="84.7272" stroke="black" stroke-dasharray="2 2"/>
<line x1="18.9475" y1="91.2207" x2="98.6847" y2="91.2207" stroke="black" stroke-dasharray="2 2"/>
</svg>
