<svg width="346" height="247" viewBox="0 0 346 247" fill="none" xmlns="http://www.w3.org/2000/svg">
<g clip-path="url(#clip0_9_215)">
<path d="M305.577 222.198C308.612 227.569 306.038 245.708 306.038 245.708C306.038 245.708 289.187 238.566 286.153 233.198C284.7 230.619 284.328 227.568 285.12 224.715C285.912 221.862 287.803 219.441 290.377 217.983C292.951 216.526 295.998 216.151 298.848 216.941C301.698 217.731 304.119 219.622 305.577 222.198V222.198Z" fill="#F1F1F1"/>
<path d="M306.283 245.684L305.925 245.76C302.477 229.359 290.436 218.237 290.315 218.126L290.561 217.855C290.683 217.967 302.81 229.164 306.283 245.684Z" fill="white"/>
<path d="M343.509 228.313C339.391 235.792 316.175 245.924 316.175 245.924C316.175 245.924 312.347 220.859 316.463 213.382C318.44 209.792 321.762 207.134 325.696 205.995C329.631 204.856 333.856 205.329 337.442 207.308C341.029 209.288 343.683 212.614 344.82 216.553C345.958 220.492 345.486 224.723 343.509 228.313Z" fill="#F1F1F1"/>
<path d="M316.38 246.196L316.031 245.828C332.831 229.854 337.18 207.575 337.222 207.352L337.719 207.445C337.677 207.67 333.301 230.105 316.38 246.196Z" fill="white"/>
<path d="M93.0719 150.555C91.0471 150.548 89.0311 150.287 87.0713 149.778L86.685 149.671L86.3267 149.491C73.3716 142.988 62.4421 134.398 53.8418 123.959C46.7225 115.268 41.1719 105.4 37.4398 94.7989C32.9767 82.1068 30.8295 68.7146 31.1007 55.2616C31.1062 54.9792 31.1108 54.7611 31.1108 54.6109C31.1108 48.0713 34.7364 42.3333 40.3473 39.9925C44.6417 38.201 83.6324 22.1665 86.4496 21.0079C91.7551 18.3463 97.4151 20.5678 98.3209 20.9563C100.353 21.788 136.397 36.5486 144.186 40.2621C152.214 44.0894 154.356 50.965 154.356 54.4243C154.356 70.0853 151.647 84.7217 146.304 97.9271C141.989 108.616 135.873 118.484 128.224 127.101C113.464 143.73 98.7009 149.626 98.5584 149.678C96.794 150.286 94.9376 150.582 93.0719 150.555ZM89.6 141.944C90.88 142.232 93.8268 142.663 95.7475 141.961C98.1875 141.07 110.544 134.655 122.091 121.645C138.045 103.669 146.14 81.0723 146.152 54.482C146.123 53.9433 145.741 50.1011 140.659 47.6783C133.021 44.0366 95.5558 28.6984 95.1782 28.5438L95.0747 28.4999C94.2896 28.1705 91.7908 27.4766 90.0684 28.3803L89.7236 28.5413C89.306 28.713 47.9169 45.7331 43.5027 47.5746C40.4149 48.8627 39.3147 52.0539 39.3147 54.6109C39.3147 54.7978 39.3099 55.0696 39.3031 55.4209C38.9503 73.615 43.1554 118.385 89.6 141.944Z" fill="#3F3D56"/>
<path d="M88.1653 24.7422C88.1653 24.7422 46.4 41.9167 41.9252 43.7835C37.4503 45.6503 35.2129 50.1306 35.2129 54.611C35.2129 59.0913 31.8567 117.553 88.1653 145.819C88.1653 145.819 93.2758 147.235 97.1531 145.819C101.03 144.404 150.254 120.509 150.254 54.4243C150.254 54.4243 150.254 47.7038 142.423 43.9702C134.592 40.2366 96.7303 24.7422 96.7303 24.7422C96.7303 24.7422 92.0807 22.6888 88.1653 24.7422Z" fill="#6C63FF"/>
<path opacity="0.1" d="M92.64 38.1832V129.803C92.64 129.803 50.5019 109.495 50.8748 56.1044L92.64 38.1832Z" fill="black"/>
<path d="M93.1895 104.032L79.7664 86.7513L87.5725 80.6727L93.9283 88.8545L115.399 66.1611L122.579 72.9721L93.1895 104.032Z" fill="white"/>
<path d="M335.218 247H174.273C174.16 247 174.053 246.955 173.974 246.876C173.895 246.797 173.85 246.689 173.85 246.577C173.85 246.465 173.895 246.357 173.974 246.278C174.053 246.199 174.16 246.154 174.273 246.154H335.218C335.33 246.154 335.438 246.199 335.517 246.278C335.596 246.357 335.641 246.465 335.641 246.577C335.641 246.689 335.596 246.797 335.517 246.876C335.438 246.955 335.33 247 335.218 247Z" fill="#CACACA"/>
<path d="M207.417 219.12C214.755 223.629 223.245 226.159 231.978 226.439C231.822 226.79 231.647 227.134 231.453 227.468C230.437 229.252 229 230.788 227.255 231.957C225.19 233.339 222.765 234.155 220.245 234.317C217.725 234.478 215.207 233.978 212.965 232.872C210.723 231.766 208.844 230.096 207.533 228.044C206.221 225.992 205.528 223.637 205.528 221.236V219.12H207.417Z" fill="#3F3D56"/>
<path d="M198.013 148.288C191.994 154.311 187.808 161.777 185.901 169.888C185.567 169.677 185.244 169.45 184.935 169.207C183.28 167.926 181.959 166.299 181.074 164.452C180.029 162.265 179.635 159.848 179.935 157.462C180.235 155.077 181.218 152.816 182.776 150.926C184.334 149.036 186.408 147.589 188.771 146.743C191.134 145.897 193.696 145.685 196.177 146.13L198.363 146.522L198.013 148.288Z" fill="#3F3D56"/>
<path d="M258.93 219.739V221.236C258.931 224.149 257.911 226.98 256.031 229.28C254.151 231.581 251.519 233.221 248.549 233.94C245.58 234.66 242.443 234.418 239.634 233.254C236.825 232.089 234.504 230.068 233.038 227.51C232.836 227.168 232.653 226.816 232.491 226.455C232.894 226.465 233.292 226.47 233.695 226.47C242.598 226.48 251.332 224.151 258.93 219.739V219.739Z" fill="#3F3D56"/>
<path d="M277.51 61.4978C277.095 61.44 276.675 61.4033 276.256 61.377C281.026 71.8272 281.356 83.6266 277.178 94.3033C277.598 94.256 278.012 94.193 278.427 94.1195C282.471 93.3745 286.107 91.289 288.686 88.2345C291.265 85.18 292.62 81.3546 292.509 77.4393C292.399 73.5239 290.831 69.7728 288.085 66.8535C285.338 63.9343 281.59 62.0364 277.51 61.4978V61.4978Z" fill="#3F3D56"/>
<path d="M191.135 61.377C190.715 61.4033 190.295 61.44 189.881 61.4978C185.8 62.0364 182.053 63.9343 179.306 66.8535C176.559 69.7728 174.991 73.5239 174.881 77.4393C174.771 81.3546 176.126 85.18 178.705 88.2345C181.284 91.2891 184.919 93.3745 188.964 94.1195C189.378 94.193 189.792 94.256 190.212 94.3033C186.034 83.6266 186.365 71.8272 191.135 61.377V61.377Z" fill="#3F3D56"/>
<path d="M277.51 61.4977C272.96 51.1646 264.532 42.8082 253.863 38.052C243.195 33.2958 231.047 32.4795 219.781 35.7616C208.515 39.0437 198.934 46.1898 192.9 55.8117C186.866 65.4336 184.81 76.8443 187.131 87.8268C189.452 98.8094 195.984 108.58 205.459 115.24C214.933 121.9 226.674 124.974 238.399 123.864C250.125 122.755 260.998 117.542 268.907 109.238C276.815 100.934 281.194 90.1316 281.194 78.9296C281.191 72.9445 279.939 67.0193 277.51 61.4977V61.4977ZM277.178 94.3033C273.138 104.628 265.179 113.141 254.868 118.167C244.556 123.193 232.64 124.368 221.463 121.46C210.286 118.552 200.659 111.773 194.476 102.456C188.294 93.1392 186.003 81.9598 188.056 71.118C190.109 60.2763 196.356 50.5577 205.567 43.8749C214.779 37.1921 226.289 34.0293 237.83 35.009C249.372 35.9886 260.11 41.0397 267.931 49.1682C275.752 57.2966 280.089 67.9137 280.089 78.9296C280.087 84.1779 279.102 89.3838 277.178 94.3033V94.3033Z" fill="#3F3D56"/>
<path d="M257.997 68.691H209.394C206.83 68.691 204.372 69.6591 202.559 71.3822C200.747 73.1054 199.729 75.4425 199.729 77.8795C199.729 80.3164 200.747 82.6535 202.559 84.3767C204.372 86.0999 206.83 87.0679 209.394 87.0679H257.997C260.56 87.0679 263.019 86.0999 264.831 84.3767C266.644 82.6535 267.662 80.3164 267.662 77.8795C267.662 75.4425 266.644 73.1054 264.831 71.3822C263.019 69.6591 260.56 68.691 257.997 68.691V68.691Z" fill="#3F3D56"/>
<path d="M233.695 133.01C220.711 133.016 208.244 137.852 198.961 146.483C189.679 155.115 184.318 166.857 184.025 179.198C183.732 191.538 188.53 203.498 197.394 212.519C206.257 221.54 218.482 226.906 231.453 227.468C231.978 227.494 232.508 227.51 233.038 227.51C233.259 227.521 233.474 227.521 233.695 227.521C246.879 227.521 259.522 222.542 268.844 213.68C278.166 204.818 283.403 192.798 283.403 180.265C283.403 167.733 278.166 155.713 268.844 146.851C259.522 137.989 246.879 133.01 233.695 133.01V133.01ZM258.93 219.739C251.332 224.151 242.599 226.48 233.695 226.47C233.292 226.47 232.894 226.465 232.491 226.455C232.32 226.455 232.149 226.449 231.978 226.439C220.307 226.053 209.171 221.688 200.607 214.14C192.042 206.593 186.62 196.368 185.332 185.333C184.045 174.299 186.977 163.193 193.592 154.044C200.208 144.895 210.066 138.315 221.365 135.507C232.663 132.698 244.647 133.849 255.127 138.748C265.607 143.647 273.882 151.968 278.44 162.189C282.999 172.41 283.536 183.85 279.954 194.417C276.372 204.983 268.909 213.972 258.93 219.739Z" fill="#3F3D56"/>
<path d="M268.583 168.627H246.859C245.345 168.627 243.893 168.055 242.823 167.038C241.753 166.02 241.151 164.64 241.151 163.201C241.151 161.762 241.753 160.382 242.823 159.365C243.893 158.347 245.345 157.775 246.859 157.775H268.583C270.096 157.775 271.548 158.347 272.618 159.365C273.689 160.382 274.29 161.762 274.29 163.201C274.29 164.64 273.689 166.02 272.618 167.038C271.548 168.055 270.096 168.627 268.583 168.627V168.627Z" fill="#3F3D56"/>
<path d="M248.307 165.955C249.906 165.955 251.203 164.722 251.203 163.201C251.203 161.68 249.906 160.448 248.307 160.448C246.707 160.448 245.41 161.68 245.41 163.201C245.41 164.722 246.707 165.955 248.307 165.955Z" fill="#F2F2F2"/>
<path d="M257.721 165.955C259.32 165.955 260.617 164.722 260.617 163.201C260.617 161.68 259.32 160.448 257.721 160.448C256.121 160.448 254.824 161.68 254.824 163.201C254.824 164.722 256.121 165.955 257.721 165.955Z" fill="#F2F2F2"/>
<path d="M267.135 165.955C268.734 165.955 270.031 164.722 270.031 163.201C270.031 161.68 268.734 160.448 267.135 160.448C265.535 160.448 264.238 161.68 264.238 163.201C264.238 164.722 265.535 165.955 267.135 165.955Z" fill="#6C63FF"/>
</g>
<defs>
<clipPath id="clip0_9_215">
<rect width="346" height="247" fill="white"/>
</clipPath>
</defs>
</svg>
