<svg width="439" height="250" viewBox="0 0 439 250" fill="none" xmlns="http://www.w3.org/2000/svg">
<g clip-path="url(#clip0_9_390)">
<path d="M95.7388 116.015C114.075 116.015 128.939 101.151 128.939 82.8151C128.939 64.4794 114.075 49.6154 95.7388 49.6154C77.4031 49.6154 62.5391 64.4794 62.5391 82.8151C62.5391 101.151 77.4031 116.015 95.7388 116.015Z" fill="#FF6584"/>
<path d="M424.802 236.179C422.85 237.935 420.797 239.576 418.653 241.093C413.564 244.672 408.065 247.628 402.273 249.899C378.203 249.319 342.818 246.366 298.153 244.791C294.822 243.652 291.414 242.42 287.931 241.093C283.321 239.336 278.579 237.406 273.705 235.302C253.461 226.554 232.676 220.868 212.089 217.471C207.665 216.741 203.252 216.116 198.851 215.595C105.884 204.477 20.1516 237.144 10.2225 241.093H9.26514L15.3723 229.265L119.288 27.9968L143.589 90.3892L151.345 110.305L172.72 80.9736L183.757 65.8291L234.02 123.454L248.226 92.0801L346.582 172.346L352.068 176.821L357.619 181.353L359.387 182.796L411.97 225.709L424.802 236.179Z" fill="#F2F2F2"/>
<path opacity="0.1" d="M110.022 68.5316L120.06 46.5271L133.957 78.5687L121.99 55.4061L110.022 68.5316Z" fill="black"/>
<path opacity="0.1" d="M212.088 217.471C207.664 216.741 203.252 216.116 198.851 215.595L151.344 110.305L212.088 217.471Z" fill="black"/>
<path opacity="0.1" d="M172.72 80.9735L183.757 72.3921L233.942 130.299L182.985 80.8851L172.72 80.9735Z" fill="black"/>
<path opacity="0.1" d="M234.019 123.453L334.314 219.475L320.595 222.71L234.019 123.453Z" fill="black"/>
<path d="M438.546 241.286C438.546 248.764 425.822 250.466 402.273 249.899C378.203 249.32 342.818 246.366 298.153 244.791C281.26 244.197 263.035 243.795 243.593 243.795C122.492 243.795 0 259.303 0 241.286C0 237.039 5.45093 232.986 15.3723 229.265C44.7888 218.231 113.497 210.151 195.809 208.851C199.554 208.789 203.325 208.744 207.124 208.715C211.147 208.681 215.196 208.664 219.273 208.665C251.998 208.665 283.051 209.731 310.943 211.642C311.031 211.649 311.116 211.657 311.205 211.661C313.444 211.815 315.661 211.975 317.857 212.14C320.254 212.321 322.626 212.508 324.972 212.699C325.454 212.738 325.937 212.777 326.415 212.819C326.763 212.846 327.11 212.877 327.454 212.908C328.087 212.958 328.72 213.012 329.345 213.07C329.367 213.069 329.389 213.071 329.411 213.074C330.561 213.174 331.704 213.275 332.839 213.375C332.959 213.387 333.078 213.398 333.198 213.406C366.186 216.398 393.448 220.648 411.97 225.709C428.918 230.338 438.546 235.642 438.546 241.286Z" fill="#3F3D56"/>
<path d="M27.3655 176.878C27.3655 201.591 42.8691 221.589 62.0287 221.589Z" fill="#3F3D56"/>
<path d="M62.0286 221.589C62.0286 196.598 79.3297 176.376 100.711 176.376Z" fill="#6C63FF"/>
<path d="M39.9246 179.119C39.9246 202.593 49.8109 221.589 62.0286 221.589Z" fill="#6C63FF"/>
<path d="M62.0286 221.589C62.0286 189.656 82.026 163.817 106.739 163.817Z" fill="#3F3D56"/>
<path d="M54.7363 221.904C54.7363 221.904 59.6521 221.753 61.1336 220.698C62.6151 219.643 68.6954 218.383 69.0629 220.075C69.4304 221.767 76.4505 228.49 70.9005 228.534C65.3506 228.579 58.005 227.67 56.5263 226.769C55.0477 225.869 54.7363 221.904 54.7363 221.904Z" fill="#A8A8A8"/>
<path opacity="0.2" d="M70.9996 227.945C65.4497 227.99 58.104 227.081 56.6254 226.18C55.4993 225.494 55.0506 223.033 54.9004 221.897C54.7965 221.902 54.7363 221.904 54.7363 221.904C54.7363 221.904 55.0477 225.868 56.5263 226.769C58.005 227.67 65.3506 228.579 70.9005 228.534C72.5026 228.521 73.056 227.951 73.0256 227.107C72.803 227.617 72.192 227.936 70.9996 227.945Z" fill="black"/>
<path d="M294.508 173.404C294.508 198.117 310.011 218.114 329.171 218.114L294.508 173.404Z" fill="#3F3D56"/>
<path d="M329.171 218.114C329.171 193.124 346.472 172.901 367.853 172.901L329.171 218.114Z" fill="#6C63FF"/>
<path d="M307.067 175.644C307.067 199.119 316.953 218.114 329.171 218.114L307.067 175.644Z" fill="#6C63FF"/>
<path d="M329.171 218.114C329.171 186.182 349.168 160.342 373.881 160.342L329.171 218.114Z" fill="#3F3D56"/>
<path d="M321.878 218.429C321.878 218.429 326.794 218.278 328.276 217.223C329.757 216.168 335.837 214.908 336.205 216.6C336.572 218.292 343.593 225.015 338.043 225.06C332.493 225.105 325.147 224.196 323.668 223.295C322.19 222.394 321.878 218.429 321.878 218.429Z" fill="#A8A8A8"/>
<path opacity="0.2" d="M338.142 224.471C332.592 224.516 325.246 223.607 323.767 222.706C322.641 222.02 322.193 219.559 322.043 218.423C321.939 218.428 321.878 218.429 321.878 218.429C321.878 218.429 322.19 222.394 323.668 223.295C325.147 224.196 332.493 225.105 338.043 225.06C339.645 225.047 340.198 224.477 340.168 223.633C339.945 224.143 339.334 224.461 338.142 224.471Z" fill="black"/>
<path d="M384.266 40.2901C382.391 40.9824 379.1 41.5486 375.289 42.0058C364.928 43.2491 350.729 43.6904 350.729 43.6904C350.729 43.6904 277.757 49.7432 223.062 27.2331C223.062 27.2331 215.106 23.0614 222.496 17.4494C223.631 16.6095 224.839 15.8721 226.105 15.246C226.105 15.246 226.135 15.2149 226.196 15.157C227.035 14.3807 227.943 13.6813 228.907 13.0671C231.74 11.2357 236.525 9.06279 242.348 10.0469L385.991 33.2815C385.991 33.2815 391.238 37.7146 384.266 40.2901Z" fill="#F2F2F2"/>
<path d="M355.643 29.7608L385.715 8.42383L398.97 10.716L385.991 33.2811C385.991 33.2811 355.988 33.5198 355.643 29.7608Z" fill="#F2F2F2"/>
<path d="M279.931 16.7995L339.832 0L349.488 2.01746L322.43 14.1894L313.972 23.6506L279.931 16.7995Z" fill="#F2F2F2"/>
<path d="M375.289 42.0059C364.928 43.2492 350.729 43.6905 350.729 43.6905C350.729 43.6905 277.757 49.7433 223.062 27.2332C223.062 27.2332 215.106 23.0614 222.496 17.4495L222.521 17.552C222.521 17.552 234.322 25.5284 290.711 32.1883L375.289 42.0059Z" fill="#F2F2F2"/>
<path d="M365.66 41.5446L392.442 52.4787L399.169 51.7317L383.15 39.6932C383.15 39.6932 363.775 35.5611 365.66 41.5446Z" fill="#F2F2F2"/>
<path d="M232.222 18.72C230.943 18.7424 228.016 16.5984 226.196 15.1571C227.036 14.3808 227.943 13.6813 228.907 13.0671C230.374 14.1931 232.986 16.0163 234.438 15.9514C236.533 15.8576 234.146 18.6867 232.222 18.72Z" fill="#F2F2F2"/>
<path d="M353.887 79.3442L336.693 80.2431L288.353 47.6454L279.378 41.5937L275.017 38.6527C283.196 31.7399 316.561 41.2712 316.561 41.2712C317.2 41.8105 317.403 42.7062 317.374 43.6953C317.319 45.549 316.449 47.731 316.113 48.5074C316.032 48.6945 315.982 48.7999 315.982 48.7999L353.887 79.3442Z" fill="#F2F2F2"/>
<path d="M384.266 40.2901C382.391 40.9824 379.1 41.5486 375.289 42.0058C364.928 43.2491 350.729 43.6904 350.729 43.6904C350.729 43.6904 277.757 49.7432 223.062 27.2331C223.062 27.2331 215.106 23.0614 222.496 17.4494C223.631 16.6095 224.839 15.8721 226.105 15.246C226.105 15.246 226.135 15.2149 226.196 15.157C227.035 14.3807 227.943 13.6813 228.907 13.0671C231.74 11.2357 236.525 9.06279 242.348 10.0469L385.991 33.2815C385.991 33.2815 391.238 37.7146 384.266 40.2901Z" fill="#3F3D56"/>
<path d="M355.643 29.7608L385.715 8.42383L398.97 10.716L385.991 33.2811C385.991 33.2811 355.988 33.5198 355.643 29.7608Z" fill="#3F3D56"/>
<path d="M279.931 16.7995L339.832 0L349.488 2.01746L322.43 14.1894L313.972 23.6506L279.931 16.7995Z" fill="#3F3D56"/>
<path d="M375.289 42.0059C364.928 43.2492 350.729 43.6905 350.729 43.6905C350.729 43.6905 277.757 49.7433 223.062 27.2332C223.062 27.2332 215.106 23.0614 222.496 17.4495L222.521 17.552C222.521 17.552 234.322 25.5284 290.711 32.1883L375.289 42.0059Z" fill="#6C63FF"/>
<path d="M365.66 41.5446L392.442 52.4787L399.169 51.7317L383.15 39.6932C383.15 39.6932 363.775 35.5611 365.66 41.5446Z" fill="#3F3D56"/>
<path d="M232.222 18.72C230.943 18.7424 228.016 16.5984 226.196 15.1571C227.036 14.3808 227.943 13.6813 228.907 13.0671C230.374 14.1931 232.986 16.0163 234.438 15.9514C236.533 15.8576 234.146 18.6867 232.222 18.72Z" fill="#6C63FF"/>
<path d="M353.887 79.3442L336.693 80.2431L288.353 47.6454L279.378 41.5937L275.017 38.6527C283.196 31.7399 316.561 41.2712 316.561 41.2712C317.2 41.8105 317.403 42.7062 317.374 43.6953C317.319 45.549 316.449 47.731 316.113 48.5074C316.032 48.6945 315.982 48.7999 315.982 48.7999L353.887 79.3442Z" fill="#3F3D56"/>
<path d="M273.069 218.741C277.396 217.415 279.442 223.985 275.127 225.349C270.8 226.675 268.755 220.106 273.069 218.741Z" fill="#3F3D56"/>
<path d="M249.13 227.938C253.457 226.612 255.503 233.182 251.188 234.546C246.861 235.872 244.816 229.302 249.13 227.938Z" fill="#3F3D56"/>
<path d="M237.398 158.374L237.465 158.353L249.547 188.533L251.016 188.075L238.848 157.679C238.81 157.207 238.612 156.761 238.286 156.417C237.96 156.072 237.526 155.85 237.056 155.786C231.415 155.054 229.277 160.104 229.277 160.104L229.301 160.136L241.653 190.991L243.122 190.533L231.133 160.587C234.432 157.136 237.398 158.374 237.398 158.374Z" fill="#3F3D56"/>
<path d="M252.376 229.564C258.994 229.278 267.081 225.472 272.588 222.635C274.047 221.885 275.194 220.644 275.827 219.13C276.46 217.617 276.538 215.929 276.047 214.363L268.095 188.827C267.741 187.696 267.16 186.648 266.388 185.748C265.615 184.848 264.668 184.114 263.604 183.592C262.571 183.079 261.443 182.785 260.291 182.728C259.139 182.671 257.988 182.853 256.909 183.262C256.654 183.385 249.681 185.548 245.067 186.98C242.352 187.822 240.391 188.43 240.26 188.478C240.152 188.517 235.282 190.344 236.32 196.26C237.118 200.803 242.644 217.473 244.983 224.429C245.492 225.95 246.473 227.268 247.783 228.192C249.093 229.116 250.663 229.598 252.266 229.567C252.303 229.566 252.34 229.565 252.376 229.564Z" fill="#6C63FF"/>
<path d="M272.63 218.385L262.366 186.901L240.485 193.749L240.34 193.287L262.678 186.296L262.753 186.523L273.091 218.234L272.63 218.385Z" fill="#3F3D56"/>
<path d="M234.922 163.199C234.271 162.917 233.689 162.496 233.217 161.965C232.746 161.434 232.397 160.806 232.195 160.125C231.992 159.445 231.942 158.728 232.046 158.026C232.151 157.324 232.408 156.653 232.8 156.061L222.327 142.345L231.273 141.726L239.847 154.845C240.798 155.57 241.45 156.617 241.68 157.79C241.91 158.963 241.702 160.18 241.095 161.21C240.488 162.239 239.524 163.01 238.387 163.377C237.249 163.744 236.016 163.68 234.922 163.199L234.922 163.199Z" fill="#FFB7B7"/>
<path d="M225.87 150.949C224.33 144.611 221.118 138.9 216.575 134.426C216.846 134.291 217.123 134.17 217.405 134.064C218.902 133.489 220.492 133.271 222.052 133.426C223.898 133.611 225.635 134.314 227.075 135.459C228.515 136.604 229.601 138.147 230.216 139.919C230.831 141.692 230.951 143.625 230.562 145.51C230.173 147.394 229.291 149.156 228.012 150.604L226.885 151.88L225.87 150.949Z" fill="#3F3D56"/>
<path d="M169.765 186.767C175.237 190.132 181.567 192.02 188.08 192.229C187.963 192.491 187.833 192.747 187.688 192.997C186.93 194.328 185.859 195.474 184.558 196.347C183.018 197.378 181.21 197.987 179.331 198.107C177.452 198.228 175.574 197.855 173.902 197.029C172.231 196.204 170.83 194.957 169.852 193.426C168.874 191.895 168.357 190.138 168.357 188.346V186.767H169.765Z" fill="#3F3D56"/>
<path d="M162.753 133.911C158.265 138.405 155.143 143.977 153.721 150.029C153.472 149.872 153.232 149.702 153.001 149.521C151.767 148.565 150.782 147.351 150.122 145.973C149.343 144.341 149.049 142.537 149.273 140.757C149.497 138.977 150.23 137.29 151.391 135.879C152.553 134.469 154.1 133.389 155.862 132.758C157.624 132.127 159.534 131.969 161.384 132.301L163.014 132.593L162.753 133.911Z" fill="#3F3D56"/>
<path d="M208.177 187.229V188.346C208.178 190.52 207.417 192.632 206.015 194.349C204.614 196.066 202.651 197.289 200.436 197.826C198.222 198.363 195.883 198.183 193.788 197.314C191.694 196.445 189.963 194.937 188.87 193.028C188.719 192.773 188.583 192.51 188.462 192.24C188.763 192.248 189.059 192.252 189.36 192.252C195.999 192.259 202.511 190.521 208.177 187.229V187.229Z" fill="#3F3D56"/>
<path d="M222.031 69.1464C221.722 69.1033 221.409 69.0759 221.096 69.0563C224.653 76.8544 224.899 85.6594 221.784 93.6265C222.097 93.5912 222.406 93.5442 222.715 93.4893C225.731 92.9334 228.442 91.3772 230.365 89.0979C232.288 86.8185 233.298 83.9639 233.216 81.0422C233.134 78.1205 231.965 75.3213 229.916 73.143C227.868 70.9646 225.074 69.5483 222.031 69.1464V69.1464Z" fill="#3F3D56"/>
<path d="M157.624 69.0563C157.311 69.0759 156.998 69.1033 156.689 69.1464C153.646 69.5483 150.852 70.9646 148.804 73.1429C146.756 75.3213 145.586 78.1205 145.504 81.0422C145.422 83.9639 146.433 86.8185 148.356 89.0979C150.279 91.3772 152.99 92.9334 156.006 93.4893C156.314 93.5442 156.623 93.5912 156.936 93.6265C153.821 85.6594 154.068 76.8544 157.624 69.0563V69.0563Z" fill="#3F3D56"/>
<path d="M222.031 69.1464C218.638 61.4356 212.354 55.1999 204.399 51.6507C196.444 48.1016 187.386 47.4924 178.985 49.9416C170.584 52.3907 163.44 57.7233 158.941 64.9034C154.441 72.0834 152.908 80.5982 154.639 88.7936C156.369 96.989 161.24 104.28 168.305 109.25C175.37 114.219 184.125 116.513 192.868 115.686C201.611 114.858 209.719 110.968 215.616 104.771C221.513 98.5745 224.779 90.5135 224.778 82.1544C224.776 77.6881 223.843 73.2667 222.031 69.1464V69.1464ZM221.784 93.6265C218.771 101.331 212.837 107.684 205.148 111.434C197.459 115.184 188.573 116.061 180.239 113.891C171.905 111.722 164.726 106.663 160.116 99.7103C155.506 92.7578 153.798 84.4155 155.329 76.3252C156.859 68.2349 161.517 60.9827 168.386 55.9959C175.255 51.0091 183.837 48.6489 192.444 49.3799C201.05 50.111 209.057 53.8802 214.889 59.9458C220.72 66.0114 223.954 73.9341 223.954 82.1544C223.953 86.0707 223.218 89.9555 221.784 93.6265V93.6265Z" fill="#3F3D56"/>
<path d="M207.481 74.5142H171.24C169.328 74.5142 167.495 75.2366 166.143 76.5224C164.792 77.8083 164.032 79.5523 164.032 81.3708C164.032 83.1893 164.792 84.9333 166.143 86.2191C167.495 87.505 169.328 88.2274 171.24 88.2274H207.481C209.393 88.2274 211.226 87.505 212.577 86.2191C213.929 84.9333 214.688 83.1893 214.688 81.3708C214.688 79.5523 213.929 77.8083 212.577 76.5224C211.226 75.2366 209.393 74.5142 207.481 74.5142V74.5142Z" fill="#3F3D56"/>
<path d="M189.36 122.51C179.678 122.515 170.382 126.123 163.46 132.564C156.539 139.005 152.541 147.767 152.323 156.976C152.104 166.185 155.682 175.11 162.291 181.841C168.9 188.573 178.016 192.577 187.688 192.997C188.079 193.016 188.475 193.028 188.87 193.028C189.035 193.036 189.195 193.036 189.36 193.036C199.19 193.036 208.618 189.321 215.569 182.708C222.52 176.095 226.425 167.125 226.425 157.773C226.425 148.421 222.52 139.452 215.569 132.839C208.618 126.226 199.19 122.51 189.36 122.51V122.51ZM208.177 187.229C202.511 190.521 195.999 192.259 189.36 192.252C189.06 192.252 188.763 192.248 188.462 192.24C188.335 192.24 188.207 192.236 188.079 192.229C179.377 191.941 171.073 188.683 164.687 183.051C158.301 177.419 154.258 169.789 153.298 161.555C152.337 153.321 154.524 145.033 159.457 138.206C164.39 131.379 171.741 126.469 180.166 124.373C188.591 122.278 197.527 123.136 205.341 126.792C213.155 130.448 219.326 136.657 222.725 144.284C226.124 151.911 226.525 160.448 223.854 168.333C221.182 176.218 215.618 182.925 208.177 187.229Z" fill="#3F3D56"/>
<path d="M215.375 149.088H199.176C198.047 149.088 196.964 148.662 196.166 147.902C195.368 147.143 194.92 146.113 194.92 145.039C194.92 143.966 195.368 142.936 196.166 142.176C196.964 141.417 198.047 140.991 199.176 140.991H215.375C216.503 140.991 217.586 141.417 218.384 142.176C219.182 142.936 219.63 143.966 219.63 145.039C219.63 146.113 219.182 147.143 218.384 147.902C217.586 148.662 216.503 149.088 215.375 149.088V149.088Z" fill="#3F3D56"/>
<path d="M200.255 147.094C201.448 147.094 202.415 146.174 202.415 145.039C202.415 143.905 201.448 142.985 200.255 142.985C199.062 142.985 198.095 143.905 198.095 145.039C198.095 146.174 199.062 147.094 200.255 147.094Z" fill="#F2F2F2"/>
<path d="M207.275 147.094C208.468 147.094 209.435 146.174 209.435 145.039C209.435 143.905 208.468 142.985 207.275 142.985C206.082 142.985 205.115 143.905 205.115 145.039C205.115 146.174 206.082 147.094 207.275 147.094Z" fill="#F2F2F2"/>
<path d="M214.295 147.094C215.487 147.094 216.454 146.174 216.454 145.039C216.454 143.905 215.487 142.985 214.295 142.985C213.102 142.985 212.135 143.905 212.135 145.039C212.135 146.174 213.102 147.094 214.295 147.094Z" fill="#6C63FF"/>
</g>
<defs>
<clipPath id="clip0_9_390">
<rect width="438.546" height="250" fill="white"/>
</clipPath>
</defs>
</svg>
