<svg width="69" height="69" viewBox="0 0 69 69" fill="none" xmlns="http://www.w3.org/2000/svg">
<g opacity="0.8">
<line x1="22.5" y1="2.5" x2="22.5" y2="66.5" stroke="black" stroke-width="5" stroke-linecap="round"/>
<line x1="34.5" y1="2.5" x2="34.5" y2="66.5" stroke="black" stroke-width="5" stroke-linecap="round"/>
<line x1="45.5" y1="2.5" x2="45.5" y2="66.5" stroke="black" stroke-width="5" stroke-linecap="round"/>
<line x1="66.5" y1="22.5" x2="2.5" y2="22.5" stroke="black" stroke-width="5" stroke-linecap="round"/>
<line x1="66.5" y1="34.5" x2="2.5" y2="34.5" stroke="black" stroke-width="5" stroke-linecap="round"/>
<line x1="66.5" y1="45.5" x2="2.5" y2="45.5" stroke="black" stroke-width="5" stroke-linecap="round"/>
<rect x="11.5" y="11.5" width="45" height="45" rx="2.5" fill="white" stroke="black" stroke-width="5"/>
<path d="M21.8765 41L28.4015 22.925H31.3515L37.864 41H35.164L33.464 36.2625H26.3265L24.589 41H21.8765ZM26.964 33.8375H32.7765L29.889 25.55L26.964 33.8375ZM41.0976 22.925H43.7726V41H41.0976V22.925ZM16.771 49V43.939H18.4825C18.8442 43.939 19.1662 43.9997 19.4485 44.121C19.7309 44.2423 19.9525 44.422 20.1135 44.66C20.2769 44.898 20.3585 45.1908 20.3585 45.5385C20.3585 45.8745 20.2827 46.1615 20.131 46.3995C19.9817 46.6375 19.7729 46.8183 19.5045 46.942C19.2362 47.0657 18.9247 47.1275 18.57 47.1275H17.436V49H16.771ZM17.4325 46.5815H18.556C18.9037 46.5815 19.186 46.4847 19.403 46.291C19.62 46.0973 19.7285 45.8337 19.7285 45.5C19.7285 45.164 19.6165 44.9097 19.3925 44.737C19.1685 44.5643 18.8792 44.478 18.5245 44.478H17.4325V46.5815ZM24.8471 49H24.1611L23.2371 46.8195H21.8756V49H21.2281V43.939H23.1881C23.5521 43.939 23.8566 43.995 24.1016 44.107C24.3466 44.2167 24.5297 44.3753 24.6511 44.583C24.7724 44.7883 24.8331 45.0345 24.8331 45.3215C24.8331 45.5968 24.7841 45.8255 24.6861 46.0075C24.5904 46.1895 24.4679 46.3365 24.3186 46.4485C24.1692 46.5582 24.0141 46.6433 23.8531 46.704L24.8471 49ZM22.9781 46.284C23.3584 46.284 23.6524 46.207 23.8601 46.053C24.0677 45.8967 24.1716 45.6657 24.1716 45.36C24.1716 45.0613 24.0782 44.8385 23.8916 44.6915C23.7072 44.5422 23.4541 44.4675 23.1321 44.4675H21.8756V46.284H22.9781ZM27.8045 49.07C27.3542 49.07 26.9645 48.9685 26.6355 48.7655C26.3065 48.5625 26.0522 48.2685 25.8725 47.8835C25.6952 47.4962 25.6065 47.0283 25.6065 46.48C25.6065 45.927 25.6963 45.4568 25.876 45.0695C26.0557 44.6798 26.31 44.3823 26.639 44.177C26.9703 43.9717 27.3588 43.869 27.8045 43.869C28.2525 43.869 28.6398 43.9717 28.9665 44.177C29.2932 44.38 29.5452 44.6763 29.7225 45.066C29.8998 45.4533 29.9885 45.9247 29.9885 46.48C29.9885 47.0283 29.8998 47.4962 29.7225 47.8835C29.5475 48.2685 29.2967 48.5625 28.97 48.7655C28.6433 48.9685 28.2548 49.07 27.8045 49.07ZM27.8045 48.5065C28.1172 48.5065 28.3832 48.4353 28.6025 48.293C28.8218 48.1507 28.9887 47.9302 29.103 47.6315C29.2197 47.3328 29.278 46.9513 29.278 46.487C29.278 46.0157 29.2197 45.6283 29.103 45.325C28.9863 45.0217 28.8183 44.7977 28.599 44.653C28.3797 44.506 28.1148 44.4325 27.8045 44.4325C27.4965 44.4325 27.2317 44.506 27.01 44.653C26.7883 44.8 26.618 45.0252 26.499 45.3285C26.38 45.6318 26.3205 46.018 26.3205 46.487C26.3205 46.9513 26.38 47.3328 26.499 47.6315C26.618 47.9302 26.7883 48.1507 27.01 48.293C27.2317 48.4353 27.4965 48.5065 27.8045 48.5065ZM32.4643 47.8065C32.4643 48.0748 32.4339 48.3035 32.3733 48.4925C32.3126 48.6815 32.2041 48.825 32.0478 48.923C31.8938 49.021 31.6744 49.07 31.3898 49.07C31.2101 49.07 31.0409 49.049 30.8823 49.007C30.7259 48.965 30.6221 48.9335 30.5708 48.9125L30.6163 48.293C30.6886 48.3187 30.7714 48.3513 30.8648 48.391C30.9604 48.4283 31.0783 48.447 31.2183 48.447C31.4469 48.447 31.6033 48.384 31.6873 48.258C31.7736 48.132 31.8168 47.9197 31.8168 47.621V43.939H32.4643V47.8065ZM33.6695 49V43.939H36.8615L36.858 44.5095H34.3205V46.1615H36.606V46.7285H34.317V48.4155L36.928 48.4225V49H33.6695ZM39.8586 43.869C40.2156 43.869 40.5318 43.9437 40.8071 44.093C41.0825 44.24 41.3041 44.4372 41.4721 44.6845C41.6401 44.9318 41.7393 45.2037 41.7696 45.5H41.0801C41.0428 45.3017 40.9716 45.122 40.8666 44.961C40.7616 44.8 40.624 44.6717 40.4536 44.576C40.2833 44.4803 40.0791 44.4325 39.8411 44.4325C39.5355 44.4325 39.2765 44.5048 39.0641 44.6495C38.8541 44.7918 38.6943 45.0123 38.5846 45.311C38.4773 45.6097 38.4236 45.9923 38.4236 46.459C38.4236 47.1637 38.5438 47.6817 38.7841 48.013C39.0268 48.342 39.3791 48.5065 39.8411 48.5065C40.0791 48.5065 40.2833 48.4563 40.4536 48.356C40.624 48.2557 40.7616 48.1215 40.8666 47.9535C40.9716 47.7855 41.0428 47.6035 41.0801 47.4075H41.7696C41.744 47.6222 41.6856 47.8298 41.5946 48.0305C41.506 48.2288 41.3835 48.4062 41.2271 48.5625C41.0708 48.7188 40.8783 48.8425 40.6496 48.9335C40.4233 49.0245 40.1596 49.07 39.8586 49.07C39.4036 49.07 39.0151 48.9662 38.6931 48.7585C38.3735 48.5508 38.1285 48.2522 37.9581 47.8625C37.7901 47.4728 37.7061 47.0027 37.7061 46.452C37.7061 45.9037 37.7901 45.437 37.9581 45.052C38.1261 44.667 38.37 44.3742 38.6896 44.1735C39.0116 43.9705 39.4013 43.869 39.8586 43.869ZM42.1786 44.534V43.939H46.0076V44.534H44.4641V49H43.8131V44.534H42.1786ZM48.5677 49.07C48.3297 49.07 48.0987 49.0408 47.8747 48.9825C47.6507 48.9218 47.4477 48.832 47.2657 48.713C47.0837 48.594 46.932 48.447 46.8107 48.272C46.6917 48.0947 46.617 47.8893 46.5867 47.656H47.2657C47.3077 47.8473 47.3905 48.0083 47.5142 48.139C47.6402 48.2697 47.793 48.3677 47.9727 48.433C48.1547 48.4983 48.3518 48.531 48.5642 48.531C48.8022 48.531 49.0145 48.4983 49.2012 48.433C49.3902 48.3653 49.5383 48.2697 49.6457 48.146C49.7553 48.0223 49.8102 47.8742 49.8102 47.7015C49.8102 47.5498 49.7752 47.418 49.7052 47.306C49.6375 47.194 49.5383 47.1007 49.4077 47.026C49.277 46.9513 49.1183 46.893 48.9317 46.851L47.9377 46.62C47.5643 46.5383 47.2715 46.3925 47.0592 46.1825C46.8492 45.9725 46.7418 45.6948 46.7372 45.3495C46.7372 45.0578 46.8142 44.8012 46.9682 44.5795C47.1245 44.3578 47.338 44.1852 47.6087 44.0615C47.8817 43.9378 48.1932 43.876 48.5432 43.876C48.9468 43.876 49.2863 43.9448 49.5617 44.0825C49.837 44.2202 50.0447 44.401 50.1847 44.625C50.3247 44.849 50.3958 45.0882 50.3982 45.3425H49.7297C49.7087 45.1138 49.641 44.933 49.5267 44.8C49.4147 44.6647 49.2735 44.569 49.1032 44.513C48.9328 44.4547 48.7473 44.4255 48.5467 44.4255C48.402 44.4255 48.262 44.4442 48.1267 44.4815C47.9937 44.5165 47.8735 44.5702 47.7662 44.6425C47.6612 44.7148 47.5772 44.8047 47.5142 44.912C47.4512 45.0193 47.4197 45.1442 47.4197 45.2865C47.4197 45.4685 47.4815 45.6167 47.6052 45.731C47.7312 45.8453 47.9587 45.9433 48.2877 46.025L49.2502 46.256C49.5022 46.3097 49.7075 46.389 49.8662 46.494C50.0272 46.599 50.1508 46.718 50.2372 46.851C50.3258 46.984 50.3865 47.1228 50.4192 47.2675C50.4542 47.4122 50.4717 47.5545 50.4717 47.6945C50.4717 47.9488 50.3958 48.181 50.2442 48.391C50.0925 48.5987 49.8743 48.7643 49.5897 48.888C49.3073 49.0093 48.9667 49.07 48.5677 49.07Z" fill="black"/>
</g>
</svg>
