<svg width="458" height="250" viewBox="0 0 458 250" fill="none" xmlns="http://www.w3.org/2000/svg">
<g clip-path="url(#clip0_9_352)">
<path d="M24.9958 227.675C15.243 235.991 13.2188 249.631 13.2188 249.631C13.2188 249.631 27.0069 249.788 36.7597 241.471C46.5124 233.155 48.5367 219.516 48.5367 219.516C48.5367 219.516 34.7486 219.359 24.9958 227.675Z" fill="#F2F2F2"/>
<path d="M29.5024 230.984C25.3481 243.109 13.4044 250 13.4044 250C13.4044 250 8.19619 237.232 12.3505 225.107C16.5048 212.982 28.4485 206.091 28.4485 206.091C28.4485 206.091 33.6567 218.859 29.5024 230.984Z" fill="#F2F2F2"/>
<path d="M131.302 51.5939C129.095 48.7346 125.977 46.0889 125.779 42.5605C125.598 39.3243 128.011 36.1113 126.993 33.0153C126.211 30.6347 123.629 29.1984 121.107 28.4377C116.277 27.0024 111.109 27.2013 106.404 29.0037L106.66 28.8237C103.788 27.8008 100.432 28.8567 98.1723 30.8126C95.9129 32.7684 94.5702 35.4793 93.5284 38.196C92.4863 40.9127 91.6791 43.7288 90.2315 46.2757C88.7836 48.8227 86.5671 51.1389 83.6426 52.0191C84.6216 53.972 87.6822 54.642 89.4772 53.2963C89.9358 52.9239 90.348 52.4978 90.7049 52.0271C91.9021 50.5714 93.0993 49.1156 94.2966 47.6599C95.5284 49.8508 93.6881 52.8746 95.2023 54.9029C95.9831 55.9489 97.4091 56.3461 98.7335 56.631C109.085 58.8397 119.823 58.4414 129.982 55.472C130.799 55.2314 131.699 54.9 132.038 54.1609C132.429 53.3078 131.882 52.3458 131.302 51.5939Z" fill="#2F2E41"/>
<path d="M160.653 62.7526C160.588 63.0368 160.546 63.3256 160.527 63.6164L137.902 76.6687L132.403 73.5028L126.54 81.1778L135.731 87.7284C136.473 88.2576 137.367 88.5317 138.279 88.5094C139.19 88.4872 140.07 88.1699 140.786 87.6052L164.116 69.1999C165.169 69.5896 166.316 69.6496 167.403 69.3718C168.491 69.094 169.469 68.4916 170.206 67.6447C170.943 66.7978 171.405 65.7466 171.53 64.6309C171.655 63.5152 171.437 62.3879 170.906 61.3988C170.375 60.4098 169.555 59.6059 168.555 59.0942C167.556 58.5824 166.425 58.3871 165.312 58.534C164.199 58.681 163.157 59.1633 162.325 59.9169C161.492 60.6705 160.909 61.6596 160.653 62.7526Z" fill="#FFB7B7"/>
<path d="M137.145 77.2868L129.833 86.7639C129.625 87.0335 129.361 87.2552 129.06 87.4137C128.758 87.5722 128.426 87.6639 128.086 87.6826C127.746 87.7012 127.406 87.6463 127.089 87.5216C126.772 87.397 126.486 87.2055 126.249 86.9602L117.971 78.3641C116.596 77.2924 115.702 75.7188 115.485 73.9886C115.269 72.2584 115.748 70.513 116.817 69.1356C117.887 67.7582 119.459 66.8614 121.188 66.642C122.918 66.4225 124.664 66.8984 126.044 67.9652L136.426 73.7707C136.723 73.937 136.981 74.1654 137.182 74.4404C137.383 74.7153 137.523 75.0304 137.591 75.3641C137.659 75.6977 137.655 76.0422 137.578 76.374C137.501 76.7058 137.353 77.0171 137.145 77.2868H137.145Z" fill="#6C63FF"/>
<path d="M127.082 242.414L133.539 242.414L136.611 217.508L127.081 217.508L127.082 242.414Z" fill="#FFB7B7"/>
<path d="M125.435 240.306L138.151 240.305H138.151C140.3 240.305 142.362 241.159 143.881 242.679C145.401 244.199 146.255 246.26 146.255 248.409V248.672L125.435 248.673L125.435 240.306Z" fill="#2F2E41"/>
<path d="M82.8409 242.414L89.298 242.414L92.3696 217.508L82.8398 217.508L82.8409 242.414Z" fill="#FFB7B7"/>
<path d="M81.1934 240.306L93.9096 240.305H93.9101C96.0593 240.305 98.1204 241.159 99.6402 242.679C101.16 244.199 102.014 246.26 102.014 248.409V248.672L81.1937 248.673L81.1934 240.306Z" fill="#2F2E41"/>
<path d="M123.204 48.0731C123.877 41.9468 119.455 36.4353 113.329 35.7628C107.203 35.0903 101.691 39.5115 101.019 45.6377C100.346 51.764 104.768 57.2755 110.894 57.948C117.02 58.6205 122.532 54.1993 123.204 48.0731Z" fill="#FFB7B7"/>
<path d="M118.641 63.5844L125.215 66.8412C125.215 66.8412 132.561 79.6064 128.347 91.7201C126.301 97.6014 132.062 116.349 132.062 116.349C132.062 116.349 140.987 201.27 141.016 227.479C129.927 229.184 119.394 231.291 118.867 226.024C118.34 220.757 112.575 158.484 112.575 158.484C112.575 158.484 104.646 227.604 98.3263 228.657C92.0061 229.711 79.3657 228.131 79.3657 228.131C79.3657 228.131 89.4008 126.883 96.2477 120.563L97.3011 115.296L97.2729 68.0194L105.161 64.2549L118.641 63.5844Z" fill="#2F2E41"/>
<path d="M95.123 135.355C95.8505 134.962 96.4828 134.413 96.9754 133.749C97.4681 133.084 97.809 132.32 97.9743 131.51C98.1395 130.699 98.1251 129.862 97.9319 129.058C97.7388 128.254 97.3716 127.502 96.8563 126.854L104.502 75.8918L94.5131 75.4122L88.5531 126.164C87.5235 127.102 86.8736 128.385 86.7266 129.769C86.5796 131.154 86.9457 132.545 87.7555 133.678C88.5654 134.811 89.7626 135.607 91.1205 135.917C92.4784 136.226 93.9025 136.026 95.123 135.355V135.355Z" fill="#FFB7B7"/>
<path d="M104.285 88.6611L92.3389 87.9069C91.999 87.8855 91.6677 87.791 91.3676 87.63C91.0675 87.4689 90.8056 87.2451 90.5998 86.9737C90.394 86.7023 90.2491 86.3898 90.175 86.0574C90.1009 85.7249 90.0992 85.3804 90.1703 85.0474L92.6595 73.3759C92.7788 71.6372 93.5829 70.0168 94.8952 68.8701C96.2076 67.7234 97.9212 67.1439 99.6602 67.2588C101.399 67.3738 103.022 68.1736 104.172 69.4831C105.322 70.7925 105.906 72.5046 105.795 74.2439L106.796 86.097C106.825 86.4364 106.78 86.778 106.665 87.0984C106.549 87.4189 106.366 87.7107 106.128 87.9541C105.89 88.1974 105.602 88.3865 105.284 88.5085C104.966 88.6306 104.625 88.6826 104.285 88.6611L104.285 88.6611Z" fill="#6C63FF"/>
<path d="M434.452 40.3354H170.272C168.343 40.3354 166.494 41.1015 165.13 42.4652C163.767 43.8288 163 45.6783 163 47.6068V194.803C163 196.732 163.767 198.581 165.13 199.945C166.494 201.308 168.343 202.074 170.272 202.074H434.452C436.38 202.074 438.23 201.308 439.594 199.945C440.957 198.581 441.723 196.732 441.723 194.803V47.6068C441.723 45.6783 440.957 43.8288 439.594 42.4652C438.23 41.1015 436.38 40.3354 434.452 40.3354V40.3354Z" fill="#3F3D56"/>
<path d="M431.975 53.1859H172.75V199.416H431.975V53.1859Z" fill="white"/>
<path d="M302.141 49.1978C303.609 49.1978 304.799 48.0075 304.799 46.5391C304.799 45.0707 303.609 43.8804 302.141 43.8804C300.672 43.8804 299.482 45.0707 299.482 46.5391C299.482 48.0075 300.672 49.1978 302.141 49.1978Z" fill="white"/>
<path d="M357.841 199.416H172.75V53.1859L357.841 199.416Z" fill="#F2F2F2"/>
<path d="M449.002 196.757H423.703V194.934C423.703 194.838 423.665 194.746 423.598 194.679C423.53 194.611 423.438 194.573 423.342 194.573H414.668C414.621 194.573 414.574 194.582 414.53 194.6C414.486 194.618 414.446 194.645 414.412 194.679C414.379 194.712 414.352 194.752 414.334 194.796C414.316 194.84 414.307 194.887 414.307 194.934V196.757H408.886V194.934C408.886 194.887 408.876 194.84 408.858 194.796C408.84 194.752 408.813 194.712 408.78 194.679C408.746 194.645 408.706 194.618 408.662 194.6C408.619 194.582 408.572 194.573 408.524 194.573H399.85C399.803 194.573 399.756 194.582 399.712 194.6C399.668 194.618 399.628 194.645 399.595 194.679C399.561 194.712 399.535 194.752 399.516 194.796C399.498 194.84 399.489 194.887 399.489 194.934V194.934V196.757H394.068V194.934C394.068 194.887 394.058 194.84 394.04 194.796C394.022 194.752 393.995 194.712 393.962 194.679C393.928 194.645 393.889 194.618 393.845 194.6C393.801 194.582 393.754 194.573 393.706 194.573H385.032C384.985 194.573 384.938 194.582 384.894 194.6C384.85 194.618 384.81 194.645 384.777 194.679C384.743 194.712 384.717 194.752 384.699 194.796C384.68 194.84 384.671 194.887 384.671 194.934V194.934V196.757H379.25V194.934C379.25 194.887 379.241 194.84 379.222 194.796C379.204 194.752 379.178 194.712 379.144 194.679C379.111 194.645 379.071 194.618 379.027 194.6C378.983 194.582 378.936 194.573 378.889 194.573H370.215C370.167 194.573 370.12 194.582 370.076 194.6C370.033 194.618 369.993 194.645 369.959 194.679C369.926 194.712 369.899 194.752 369.881 194.796C369.863 194.84 369.853 194.887 369.853 194.934V196.757H364.432V194.934C364.432 194.887 364.423 194.84 364.405 194.796C364.386 194.752 364.36 194.712 364.326 194.679C364.293 194.645 364.253 194.618 364.209 194.6C364.165 194.582 364.118 194.573 364.071 194.573H355.397C355.349 194.573 355.302 194.582 355.259 194.6C355.215 194.618 355.175 194.645 355.141 194.679C355.108 194.712 355.081 194.752 355.063 194.796C355.045 194.84 355.035 194.887 355.035 194.934V194.934V196.757H349.614V194.934C349.614 194.887 349.605 194.84 349.587 194.796C349.569 194.752 349.542 194.712 349.508 194.679C349.475 194.645 349.435 194.618 349.391 194.6C349.347 194.582 349.3 194.573 349.253 194.573H340.579C340.532 194.573 340.485 194.582 340.441 194.6C340.397 194.618 340.357 194.645 340.323 194.679C340.29 194.712 340.263 194.752 340.245 194.796C340.227 194.84 340.218 194.887 340.218 194.934V194.934V196.757H334.796V194.934C334.796 194.887 334.787 194.84 334.769 194.796C334.751 194.752 334.724 194.712 334.691 194.679C334.657 194.645 334.617 194.618 334.573 194.6C334.53 194.582 334.483 194.573 334.435 194.573H266.49C266.442 194.573 266.395 194.582 266.352 194.6C266.308 194.618 266.268 194.645 266.234 194.679C266.201 194.712 266.174 194.752 266.156 194.796C266.138 194.84 266.129 194.887 266.129 194.934V194.934V196.757H260.707V194.934C260.707 194.887 260.698 194.84 260.68 194.796C260.662 194.752 260.635 194.712 260.601 194.679C260.568 194.645 260.528 194.618 260.484 194.6C260.44 194.582 260.393 194.573 260.346 194.573H251.672C251.625 194.573 251.578 194.582 251.534 194.6C251.49 194.618 251.45 194.645 251.417 194.679C251.383 194.712 251.356 194.752 251.338 194.796C251.32 194.84 251.311 194.887 251.311 194.934V194.934V196.757H245.89V194.934C245.89 194.887 245.88 194.84 245.862 194.796C245.844 194.752 245.817 194.712 245.784 194.679C245.75 194.645 245.71 194.618 245.666 194.6C245.623 194.582 245.576 194.573 245.528 194.573H236.854C236.807 194.573 236.76 194.582 236.716 194.6C236.672 194.618 236.632 194.645 236.599 194.679C236.565 194.712 236.539 194.752 236.52 194.796C236.502 194.84 236.493 194.887 236.493 194.934V194.934V196.757H231.072V194.934C231.072 194.887 231.062 194.84 231.044 194.796C231.026 194.752 230.999 194.712 230.966 194.679C230.932 194.645 230.892 194.618 230.849 194.6C230.805 194.582 230.758 194.573 230.71 194.573H222.036C221.989 194.573 221.942 194.582 221.898 194.6C221.854 194.618 221.814 194.645 221.781 194.679C221.747 194.712 221.721 194.752 221.703 194.796C221.684 194.84 221.675 194.887 221.675 194.934V194.934V196.757H216.254V194.934C216.254 194.887 216.245 194.84 216.226 194.796C216.208 194.752 216.182 194.712 216.148 194.679C216.114 194.645 216.075 194.618 216.031 194.6C215.987 194.582 215.94 194.573 215.892 194.573H207.219C207.171 194.573 207.124 194.582 207.08 194.6C207.036 194.618 206.997 194.645 206.963 194.679C206.93 194.712 206.903 194.752 206.885 194.796C206.867 194.84 206.857 194.887 206.857 194.934V194.934V196.757H201.436V194.934C201.436 194.887 201.427 194.84 201.409 194.796C201.39 194.752 201.364 194.712 201.33 194.679C201.297 194.645 201.257 194.618 201.213 194.6C201.169 194.582 201.122 194.573 201.075 194.573H192.401C192.305 194.573 192.213 194.611 192.145 194.679C192.077 194.746 192.039 194.838 192.039 194.934V196.757H186.618V194.934C186.618 194.887 186.609 194.84 186.591 194.796C186.573 194.752 186.546 194.712 186.512 194.679C186.479 194.645 186.439 194.618 186.395 194.6C186.351 194.582 186.304 194.573 186.257 194.573H177.583C177.487 194.573 177.395 194.611 177.327 194.679C177.26 194.746 177.222 194.838 177.222 194.934V196.757H160.597C159.458 196.757 158.33 196.981 157.277 197.417C156.225 197.853 155.269 198.492 154.463 199.297C153.658 200.103 153.019 201.059 152.583 202.111C152.147 203.164 151.923 204.292 151.923 205.431V209.353C151.923 211.653 152.837 213.86 154.463 215.486C156.09 217.113 158.296 218.027 160.597 218.027H449.002C451.303 218.027 453.509 217.113 455.135 215.486C456.762 213.86 457.676 211.653 457.676 209.353V205.431C457.676 204.292 457.452 203.164 457.016 202.111C456.58 201.059 455.941 200.103 455.135 199.297C454.33 198.492 453.374 197.853 452.321 197.417C451.269 196.981 450.141 196.757 449.002 196.757V196.757Z" fill="#3F3D56"/>
<path d="M307.348 180.241C307.262 180.447 307.164 180.648 307.057 180.844C306.491 181.887 305.692 182.786 304.722 183.47C303.573 184.279 302.224 184.756 300.823 184.851C299.421 184.945 298.02 184.653 296.773 184.005C295.527 183.358 294.481 182.381 293.752 181.18C293.022 179.98 292.637 178.602 292.637 177.197V175.959H293.687C297.769 178.598 302.491 180.078 307.348 180.241Z" fill="#3F3D56"/>
<path d="M322.34 176.322V177.197C322.341 178.902 321.773 180.558 320.728 181.904C319.682 183.25 318.218 184.209 316.566 184.63C314.914 185.051 313.169 184.91 311.607 184.229C310.045 183.547 308.754 182.365 307.938 180.868C307.826 180.668 307.724 180.462 307.634 180.251C307.859 180.257 308.08 180.26 308.304 180.26C313.256 180.266 318.114 178.903 322.34 176.322V176.322Z" fill="#3F3D56"/>
<path d="M332.674 83.7376C332.444 83.7038 332.21 83.6823 331.977 83.667C334.63 89.7811 334.814 96.6848 332.49 102.931C332.723 102.904 332.954 102.867 333.184 102.824C335.434 102.388 337.456 101.168 338.89 99.3808C340.325 97.5937 341.078 95.3555 341.017 93.0647C340.956 90.7739 340.084 88.5791 338.556 86.8711C337.028 85.1631 334.944 84.0527 332.674 83.7376V83.7376Z" fill="#3F3D56"/>
<path d="M284.631 83.667C284.397 83.6823 284.164 83.7039 283.934 83.7376C281.664 84.0528 279.579 85.1632 278.052 86.8712C276.524 88.5792 275.652 90.7739 275.59 93.0647C275.529 95.3555 276.283 97.5936 277.717 99.3808C279.152 101.168 281.174 102.388 283.424 102.824C283.654 102.867 283.884 102.904 284.118 102.931C281.794 96.6848 281.978 89.7812 284.631 83.667V83.667Z" fill="#3F3D56"/>
<path d="M332.674 83.7375C330.143 77.6924 325.456 72.8038 319.522 70.0214C313.588 67.2391 306.832 66.7617 300.567 68.6819C294.301 70.6022 288.972 74.783 285.617 80.4122C282.261 86.0414 281.117 92.7169 282.408 99.1421C283.699 105.567 287.332 111.283 292.602 115.179C297.871 119.075 304.401 120.874 310.922 120.225C317.444 119.576 323.491 116.526 327.89 111.668C332.288 106.81 334.723 100.49 334.723 93.9366C334.722 90.4348 334.025 86.9681 332.674 83.7375ZM332.49 102.931C330.242 108.972 325.816 113.953 320.081 116.893C314.346 119.833 307.718 120.521 301.501 118.819C295.285 117.118 289.93 113.152 286.492 107.701C283.053 102.25 281.779 95.7095 282.92 89.3665C284.062 83.0235 287.537 77.3375 292.66 73.4277C297.784 69.5179 304.185 67.6674 310.605 68.2405C317.024 68.8137 322.997 71.7689 327.346 76.5245C331.696 81.2801 334.109 87.4916 334.109 93.9366C334.108 97.0072 333.559 100.053 332.49 102.931V102.931Z" fill="#3F3D56"/>
<path d="M321.821 87.9462H294.787C293.361 87.9462 291.994 88.5126 290.986 89.5208C289.978 90.529 289.411 91.8964 289.411 93.3222C289.411 94.748 289.978 96.1154 290.986 97.1236C291.994 98.1318 293.361 98.6982 294.787 98.6982H321.821C323.247 98.6982 324.614 98.1318 325.622 97.1236C326.63 96.1154 327.197 94.748 327.197 93.3222C327.197 91.8964 326.63 90.529 325.622 89.5208C324.614 88.5126 323.247 87.9462 321.821 87.9462V87.9462Z" fill="#3F3D56"/>
<path d="M332.49 139.845C332.391 139.663 332.29 139.485 332.186 139.31C332.183 139.304 332.179 139.301 332.176 139.295C329.759 135.157 326.308 131.719 322.161 129.318C318.014 126.917 313.313 125.635 308.521 125.599C303.73 125.563 299.011 126.774 294.828 129.112C290.645 131.45 287.142 134.836 284.663 138.937C282.183 143.037 280.813 147.712 280.686 152.503C280.559 157.293 281.68 162.034 283.938 166.261C286.197 170.487 289.515 174.054 293.568 176.61C297.621 179.167 302.27 180.626 307.057 180.844C307.348 180.859 307.643 180.868 307.938 180.868C308.061 180.874 308.181 180.874 308.304 180.874C313.243 180.881 318.092 179.556 322.34 177.037C326.954 174.306 330.681 170.301 333.073 165.502C333.076 165.496 333.08 165.493 333.083 165.487C333.175 165.302 333.264 165.115 333.353 164.924C335.201 160.973 336.086 156.64 335.936 152.281C335.786 147.921 334.605 143.66 332.49 139.845H332.49ZM332.754 164.755C332.665 164.946 332.573 165.133 332.478 165.318C330.192 169.86 326.681 173.672 322.34 176.322C318.114 178.903 313.256 180.266 308.304 180.26C308.08 180.26 307.858 180.257 307.634 180.251C307.539 180.251 307.444 180.248 307.348 180.241C302.658 180.077 298.091 178.695 294.097 176.231C290.103 173.766 286.819 170.304 284.569 166.185C282.319 162.066 281.18 157.433 281.264 152.74C281.349 148.048 282.653 143.458 285.049 139.423C287.446 135.387 290.851 132.045 294.931 129.725C299.011 127.406 303.625 126.188 308.318 126.193C313.012 126.197 317.623 127.423 321.698 129.751C325.774 132.078 329.173 135.427 331.562 139.467C331.565 139.473 331.568 139.476 331.571 139.482C331.679 139.657 331.783 139.835 331.882 140.014C333.99 143.769 335.169 147.974 335.321 152.279C335.473 156.583 334.592 160.861 332.754 164.755Z" fill="#3F3D56"/>
<path d="M329.553 140.662C329.015 140.278 328.371 140.071 327.71 140.069H315.627C314.786 140.069 313.979 140.403 313.384 140.998C312.788 141.593 312.454 142.401 312.454 143.242C312.454 144.084 312.788 144.891 313.384 145.486C313.979 146.081 314.786 146.416 315.627 146.416H327.71C327.925 146.416 328.14 146.395 328.352 146.351C328.562 146.306 328.768 146.241 328.966 146.158C329.483 145.935 329.931 145.579 330.264 145.126C330.598 144.674 330.805 144.14 330.865 143.581C330.925 143.022 330.835 142.457 330.604 141.944C330.374 141.431 330.011 140.988 329.553 140.662L329.553 140.662Z" fill="#3F3D56"/>
<path d="M316.432 144.853C317.322 144.853 318.043 144.132 318.043 143.242C318.043 142.352 317.322 141.631 316.432 141.631C315.542 141.631 314.821 142.352 314.821 143.242C314.821 144.132 315.542 144.853 316.432 144.853Z" fill="#F1F1F1"/>
<path d="M321.668 144.853C322.558 144.853 323.279 144.132 323.279 143.242C323.279 142.352 322.558 141.631 321.668 141.631C320.778 141.631 320.057 142.352 320.057 143.242C320.057 144.132 320.778 144.853 321.668 144.853Z" fill="#F1F1F1"/>
<path d="M326.904 144.853C327.794 144.853 328.515 144.132 328.515 143.242C328.515 142.352 327.794 141.631 326.904 141.631C326.014 141.631 325.293 142.352 325.293 143.242C325.293 144.132 326.014 144.853 326.904 144.853Z" fill="#6C63FF"/>
<path d="M387.583 90.1433C383.394 92.656 375.929 95.8044 368.301 92.5688L363.37 90.4772L373.251 79.4004C365.366 70.7062 361.004 59.3857 361.016 47.6484C361.028 35.9111 365.413 24.5995 373.316 15.9215C381.219 7.24355 392.072 1.82201 403.757 0.715165C415.442 -0.391682 427.12 2.8956 436.512 9.93536C445.904 16.9751 452.335 27.2621 454.551 38.7884C456.766 50.3147 454.607 62.2529 448.495 72.273C442.382 82.293 432.755 89.6757 421.493 92.9799C410.23 96.2841 398.14 95.2728 387.583 90.1433V90.1433Z" fill="white"/>
<path d="M387.609 90.7403C383.583 93.1039 375.914 96.3704 368.095 93.0535L362.488 90.6749L372.544 79.4017C366.287 72.3633 362.252 63.6307 360.948 54.3037C359.644 44.9768 361.13 35.4725 365.217 26.9879C369.304 18.5033 375.81 11.4177 383.916 6.62363C392.022 1.82951 401.366 -0.458796 410.77 0.0468843C420.174 0.552565 429.218 3.82962 436.763 9.46535C444.309 15.1011 450.017 22.8435 453.171 31.7174C456.325 40.5914 456.782 50.2001 454.485 59.3334C452.189 68.4668 447.241 76.7164 440.265 83.0432V83.0432C433.259 89.4357 424.5 93.5849 415.116 94.9567C405.732 96.3284 396.152 94.8599 387.609 90.7403H387.609ZM442.774 16.3468C438.657 11.8057 433.687 8.12001 428.145 5.50025C422.604 2.88049 416.602 1.37797 410.48 1.07848C404.358 0.779001 398.237 1.68843 392.467 3.75483C386.696 5.82123 381.39 9.00412 376.85 13.1217C372.31 17.2393 368.625 22.2109 366.007 27.7526C363.389 33.2944 361.888 39.2976 361.59 45.4195C361.292 51.5414 362.203 57.6621 364.27 63.4318C366.338 69.2016 369.523 74.5075 373.641 79.0465L373.96 79.3976L364.252 90.2794L368.507 92.084C376.058 95.2873 383.53 91.9598 387.312 89.6915L387.557 89.5447L387.813 89.6694C397.563 94.4067 408.658 95.6021 419.193 93.0504C429.728 90.4986 439.046 84.359 445.548 75.6854C452.049 67.0119 455.328 56.3456 454.822 45.5177C454.316 34.6899 450.056 24.376 442.774 16.3468L442.774 16.3468Z" fill="#6C63FF"/>
<path opacity="0.1" d="M448.047 47.4026C448.047 36.5494 443.982 26.0899 436.655 18.0836C429.328 10.0774 419.268 5.10484 408.458 4.14513C409.723 4.03432 411.002 3.97437 412.296 3.97437C423.809 3.98131 434.849 8.55983 442.987 16.7034C451.126 24.8471 455.698 35.8892 455.698 47.4026C455.698 58.9159 451.126 69.9581 442.987 78.1017C434.849 86.2453 423.809 90.8238 412.296 90.8308C411.004 90.8308 409.727 90.77 408.464 90.6595C419.273 89.6983 429.331 84.7252 436.657 76.7192C443.983 68.7133 448.047 58.2546 448.047 47.4026Z" fill="black"/>
<path d="M414.336 38.7423H383.304V41.6241H414.336V38.7423Z" fill="#6C63FF"/>
<path d="M437.39 48.7113H383.304V51.5931H437.39V48.7113Z" fill="#6C63FF"/>
<path d="M437.337 58.6802H383.304V61.5619H437.337V58.6802Z" fill="#6C63FF"/>
<path d="M201.192 249.223H0.526681C0.386997 249.223 0.253033 249.167 0.154261 249.068C0.0554891 248.97 0 248.836 0 248.696C0 248.556 0.0554891 248.422 0.154261 248.323C0.253033 248.225 0.386997 248.169 0.526681 248.169H201.192C201.332 248.169 201.466 248.225 201.565 248.323C201.664 248.422 201.719 248.556 201.719 248.696C201.719 248.836 201.664 248.97 201.565 249.068C201.466 249.167 201.332 249.223 201.192 249.223Z" fill="#CBCBCB"/>
<path d="M123.807 39.6014C123.373 37.6288 121.96 35.9945 120.333 34.7975C117.651 32.8244 114.361 31.8544 111.038 32.0565C107.714 32.2586 104.566 33.62 102.143 35.9036C100.789 37.0996 99.8127 38.6643 99.3337 40.4063C99.1052 41.277 99.093 42.1904 99.2982 43.0668C99.5033 43.9433 99.9196 44.7563 100.511 45.4351L100.734 45.5748C100.532 44.7174 101.198 43.8606 101.993 43.4823C102.821 43.1786 103.685 42.9849 104.563 42.9062C105.891 42.6551 107.15 42.1219 108.255 41.3424C109.359 40.563 110.284 39.5555 110.965 38.3881C111.471 39.8249 112.278 41.1369 113.332 42.2359C114.387 43.3348 115.664 44.1952 117.079 44.7592C118.554 45.3359 122.605 46.1291 124.009 45.3968C125.8 44.4628 124.242 41.5741 123.807 39.6014Z" fill="#2F2E41"/>
</g>
<defs>
<clipPath id="clip0_9_352">
<rect width="457.676" height="250" fill="white"/>
</clipPath>
</defs>
</svg>
